<?xml version="1.0" encoding="UTF-8"?>
<!DOCTYPE svg PUBLIC "-//W3C//DTD SVG 1.1//EN" "http://www.w3.org/Graphics/SVG/1.1/DTD/svg11.dtd">
<!-- Creator: CorelDRAW -->
<svg xmlns="http://www.w3.org/2000/svg" xml:space="preserve" width="1.70666in" height="1.70666in" version="1.1" style="shape-rendering:geometricPrecision; text-rendering:geometricPrecision; image-rendering:optimizeQuality; fill-rule:evenodd; clip-rule:evenodd"
viewBox="0 0 1707 1707"
 xmlns:xlink="http://www.w3.org/1999/xlink">
 <defs>
  <style type="text/css">
   <![CDATA[
    .fil0 {fill:#000002}
   ]]>
  </style>
 </defs>
 <g id="Layer_x0020_1">
  <metadata id="CorelCorpID_0Corel-Layer"/>
  <path class="fil0" d="M1032 1655l0 -310c0,-30 46,-30 46,0l0 310 204 0 0 -339c0,-187 -152,-339 -339,-339l-65 0 -196 261c-9,11 -28,11 -37,0l-196 -261 -64 0c-187,0 -340,152 -340,339l0 339 204 0 0 -310c0,-30 46,-30 46,0l0 310 737 0zm357 -693c-175,0 -318,-142 -318,-318 0,-175 143,-317 318,-317 175,0 318,142 318,317 0,176 -143,318 -318,318zm0 -590c-150,0 -272,122 -272,272 0,150 122,273 272,273 150,0 272,-123 272,-273 0,-150 -122,-272 -272,-272zm-56 396c-6,0 -12,-2 -16,-7l-90 -90c-21,-21 11,-53 32,-32l74 74 186 -186c21,-21 53,11 32,32l-202 202c-4,5 -10,7 -16,7zm-399 -309c-1,-1 -1,-2 -1,-3 -1,-129 -156,-218 -294,-218 -135,0 -221,81 -231,218l0 104c0,101 57,189 140,233 43,19 70,30 123,30 142,0 263,-115 263,-263l0 -101zm-572 1c-15,-35 -95,-243 95,-387 4,-3 92,-67 213,-67 66,0 130,20 188,59 187,127 131,357 121,393l0 102c0,116 -64,217 -158,269l59 103 63 0c212,0 384,172 384,384l0 362c0,13 -10,23 -23,23l-1281 0c-13,0 -23,-10 -23,-23l0 -362c0,-212 173,-384 385,-384l62 0 63 -109c-89,-54 -148,-152 -148,-263l0 -100zm308 -409c-105,0 -185,58 -186,59 -106,80 -115,182 -104,252 91,-253 462,-195 570,-9 3,-76 -15,-181 -118,-250 -50,-34 -105,-52 -162,-52zm1 818c-43,0 -84,-9 -121,-25l-63 109 177 234 176 -234 -60 -104c-34,13 -71,20 -109,20z"/>
 </g>
</svg>
